<svg width="192" height="244" viewBox="0 0 192 244" fill="none" xmlns="http://www.w3.org/2000/svg">
<path d="M40.813 0.624092C68.0499 0.624092 67.4107 0.814194 68.0193 2.15511C69.1076 4.54989 68.1328 2.1347 81.4438 37.8304C93.0068 68.8336 91.1798 66.2015 92.3612 63.0055L112.137 9.71959C115.284 1.29902 114.777 1.22374 118.169 1.46233C118.202 1.46233 151.621 0.527128 156.497 1.51591C159.528 2.13087 158.857 2.66418 141.506 48.6139C117.177 113.044 114.759 109.993 116.171 110.143C118.403 110.38 120.367 110.281 121.058 112.593C122.441 117.227 122.281 126.789 122.174 131.079C121.983 138.715 121.816 138.71 122.61 139.228C133.515 146.58 141.638 157.378 145.68 169.893C148.503 178.785 149.064 188.242 147.313 197.408C145.563 206.572 141.556 215.156 135.653 222.382C129.751 229.609 122.142 235.251 113.511 238.798C104.881 242.344 95.5035 243.684 86.2257 242.695C32.7675 236.973 17.1447 167.138 61.9067 138.679C62.3494 138.397 62.2805 138.287 62.0559 136.844C61.5099 133.333 60.7329 112.872 63.1876 111.252C64.3053 110.676 65.513 110.295 66.7587 110.125C67.9886 109.943 66.5878 111.697 49.7899 69.6961C46.6003 61.7373 26.0591 8.29956 24.9555 2.99207C24.9224 2.57334 25.0326 2.15579 25.2682 1.80802C25.5038 1.46023 25.8506 1.20291 26.2517 1.0783C28.5253 0.543714 40.813 0.593472 40.813 0.624092ZM144.167 185.795C144.48 153.879 114.399 128.11 81.0648 135.364C44.0384 143.421 27.2239 186.832 49.5245 216.977C79.8477 257.96 143.67 236.588 144.167 185.795ZM65.0784 136.409C65.0784 137.047 65.2277 136.594 67.6493 135.442C95.7257 122.076 118.63 137.994 118.645 136.529C118.645 136.499 118.007 124.886 118.517 113.682C118.542 113.145 118.547 113.3 113.375 113.277C104.003 113.229 72.5001 112.93 67.5612 112.56C65.2877 112.39 65.1882 112.232 65.243 112.739C65.6003 116.071 65.0376 131.874 65.0784 136.409ZM153.389 4.03444C148.413 4.12248 149.759 3.68358 148.984 5.89208C145.263 16.4816 144.357 18.7513 138.862 33.4683C107.111 118.506 105.149 109.467 109.599 109.728C113.729 109.972 113.715 110.158 113.89 109.666C115.568 104.961 127.431 75.4731 154.058 6.4828C155.166 3.60448 155.416 3.99744 153.389 4.03444ZM28.4054 3.57386C27.2647 3.57386 25.6814 -2.06922 69.105 109.385C69.2989 109.884 69.0833 109.791 72.435 109.568C72.8012 109.542 73.2643 109.633 73.5067 109.44C73.7836 109.225 73.8652 108.756 74.0298 108.398C74.6384 107.063 74.2773 108.291 69.8195 97.8682C51.1538 54.2341 34.0535 6.03243 33.5853 4.22072C33.4054 3.47307 33.6785 3.55855 28.4054 3.57386ZM117.113 4.70044C85.0481 98.45 73.8155 109.401 78.0028 109.401C81.8112 109.401 81.9847 109.514 82.2591 108.782C85.6401 99.773 86.9236 96.1228 94.3095 79.4257C96.4503 74.5852 94.5723 79.5125 104.632 52.393C124.025 0.131614 122.904 4.07017 122.062 4.06379C117.027 4.02424 117.425 3.78565 117.113 4.70044ZM60.5657 3.5981C60.2583 3.5981 60.3182 3.63 60.7686 4.83185C89.5429 81.5845 87.0613 77.0782 87.7452 75.3047C89.6973 70.2422 89.9473 70.0929 89.4446 68.8961C88.0029 65.4654 74.669 30.5887 65.8006 4.05741C65.5505 3.30848 65.8363 3.64914 60.5657 3.5981Z" fill="white"/>
<path d="M91.842 228.253C55.7545 227.531 37.5379 186.704 61.1029 159.115C82.7516 133.77 128.978 145.08 132.821 183.89C134.207 197.861 126.697 212.768 116.955 219.581C108.813 225.275 103.612 227.593 91.842 228.253ZM129.853 186.605C130.244 156.771 96.7183 138.105 70.8389 154.766C39.601 174.879 52.8341 223.244 89.9512 224.891C95.1064 225.081 100.247 224.233 105.069 222.397C109.889 220.561 114.292 217.773 118.014 214.202C121.736 210.631 124.703 206.347 126.737 201.606C128.77 196.866 129.83 191.764 129.853 186.605Z" fill="white"/>
<path d="M108.452 192.025C107.957 192.464 108.295 192.121 109.127 197.384C109.51 199.791 110.06 203.954 108.662 205.942C105.521 210.408 97.179 204.266 92.5055 201.257C91.5818 200.663 84.5315 207.28 79.0274 207.546C78.1146 207.62 77.2066 207.353 76.4789 206.797C75.7514 206.241 75.2562 205.434 75.0889 204.534C74.7384 202.786 74.7211 200.987 75.0379 199.232C76.0343 189.536 77.5105 193.702 73.6434 189.822C64.7507 180.904 62.7029 177.586 74.8529 175.1C75.8468 174.896 75.5635 175.041 79.7802 174.325C81.6493 174.009 81.7603 174.093 81.9874 173.601C82.596 172.28 83.3666 171.037 83.9012 169.679C84.2375 168.99 84.6154 168.322 85.0329 167.681C92.3052 154.444 93.6002 157.51 101.148 171.035C103.36 175 100.879 173.538 107.783 174.788C119.069 176.837 123.417 178.777 108.452 192.025ZM78.054 203.29C78.4916 204.902 83.6027 201.66 91.6188 198.431C92.998 197.875 101.244 202.374 103.659 203.221C106.63 204.264 106.992 204.583 106.096 196.063C105.92 194.384 105.33 192.449 105.347 191.105C105.361 189.938 106.106 189.79 108.082 188.185C110.846 186.007 113.29 183.451 115.346 180.596C115.427 180.491 115.485 180.37 115.512 180.24C115.538 180.111 115.535 179.977 115.501 179.848C115.467 179.721 115.405 179.602 115.316 179.503C115.228 179.403 115.119 179.327 114.996 179.277C114.551 179.022 110.69 178.209 110.642 178.199C103.22 176.503 101.563 177.422 100.736 175.965C99.9093 174.508 93.6117 164.002 92.5209 162.758C91.7553 161.888 91.1787 163.83 83.5733 176.123C82.8946 177.219 80.9093 176.813 74.0797 178.106C68.3384 179.193 68.1661 179.342 69.6448 181.513C71.2745 183.485 73.044 185.336 74.9396 187.053C77.8932 189.647 79.1767 189.88 79.0785 191.263C78.9973 192.317 78.8093 193.36 78.5171 194.375C78.267 196.09 77.5959 201.599 78.054 203.29Z" fill="white"/>
<path d="M178.072 95.3492C178.454 95.3811 178.352 95.1426 177.809 94.0045C175.669 89.5301 175.533 89.6207 175.661 88.7812C175.76 88.1432 176.447 87.6648 177.43 88.5515C178.833 89.8171 180.577 94.3579 180.903 94.8172C181.285 95.3607 184.993 89.5722 187.332 87.6405C187.471 87.4919 187.662 87.4027 187.865 87.3914C188.069 87.38 188.269 87.4474 188.424 87.5796C188.579 87.7117 188.676 87.8985 188.698 88.1011C188.719 88.3037 188.661 88.5066 188.536 88.6676C182.966 97.1673 181.774 95.6184 185.602 96.1109C188.953 96.5409 192.088 97.5577 190.96 97.9265C188.554 98.5066 186.062 98.644 183.607 98.3322C181.144 98.2046 182.515 97.152 183.701 105.249C183.72 105.496 183.72 105.745 183.701 105.992C183.701 106.262 183.516 106.366 183.3 106.464C182.071 107.023 180.631 98.928 179.905 99.8466C179.827 99.9449 175.67 105.15 175.078 105.578C174.971 105.664 174.837 105.713 174.7 105.716C174.562 105.72 174.426 105.678 174.314 105.597C174.203 105.516 174.12 105.401 174.081 105.269C174.041 105.137 174.045 104.995 174.093 104.866C174.365 103.672 174.476 103.487 177.065 99.8696C178.154 98.3386 178.662 98.1217 178.306 98.0489C176.726 97.7249 171.919 97.8601 170.566 97.0027C169.817 96.5281 169.904 95.325 172.352 95.2408C173.207 95.2114 176.348 95.2038 178.072 95.3492Z" fill="white"/>
<path d="M6.45044 88.0134C7.0654 88.0351 7.1024 87.9624 6.99906 87.6651C5.13249 82.341 4.12584 81.3024 4.92835 80.7997C5.55607 80.4055 5.99241 81.2705 6.19272 81.6329C8.85287 86.4594 8.40505 87.1433 8.92177 86.4977C10.8853 84.043 11.6393 83.021 12.4941 81.9429C13.349 80.8648 14.4232 81.4645 14.0354 82.1585C13.4906 83.1307 12.7123 84.1642 10.264 87.5783C9.43466 88.7343 11.8549 87.3997 15.4056 88.0619C15.967 88.1665 15.6506 88.6998 15.5166 88.7764C14.5703 89.2696 13.5216 89.5344 12.4546 89.5495C9.93352 89.8864 9.73448 89.6899 9.91055 90.1619C10.7502 92.1362 11.4166 94.1797 11.9022 96.2694C12.1088 97.0873 11.2961 99.0763 9.09528 93.5902C7.76584 90.2793 8.58494 90.0905 6.46065 93.2074C4.19984 96.5246 4.05056 97.0094 3.25316 96.8716C2.45575 96.7339 2.26565 96.0896 2.52209 95.6685C6.34327 89.4054 6.92123 89.9004 5.64538 89.8481C2.31796 89.7141 1.56265 89.7817 0.364629 89.2778C0.24993 89.2211 0.154368 89.1321 0.0898098 89.0217C0.0251241 88.9115 -0.00575178 88.7845 0.000882646 88.6568C0.00751707 88.5291 0.0514076 88.4062 0.127193 88.3032C0.202979 88.2002 0.307216 88.1216 0.427146 88.0772C2.42577 87.8252 4.44684 87.8038 6.45044 88.0134Z" fill="white"/>
<path d="M14.7663 161.325C14.0994 161.471 13.4031 161.389 12.7879 161.093C12.1728 160.797 11.674 160.305 11.371 159.692C11.068 159.081 10.9781 158.386 11.1153 157.717C11.2527 157.049 11.6095 156.445 12.1291 156.002C12.6437 155.623 13.2514 155.39 13.8876 155.329C14.5239 155.268 15.1649 155.38 15.7423 155.654C16.2654 155.981 16.6792 156.457 16.9312 157.021C17.1832 157.583 17.2618 158.208 17.1571 158.817C17.0525 159.426 16.7693 159.988 16.3435 160.435C15.9178 160.881 15.3686 161.191 14.7663 161.325ZM15.394 158.211C15.565 156.602 12.6675 155.914 12.6586 158.083C12.6428 158.267 12.6642 158.452 12.7216 158.627C12.779 158.803 12.8713 158.965 12.9928 159.104C13.1143 159.242 13.2626 159.355 13.4288 159.436C13.595 159.515 13.7756 159.561 13.96 159.57C14.1442 159.579 14.3283 159.549 14.5013 159.486C14.6742 159.42 14.8324 159.322 14.9664 159.196C15.1002 159.068 15.2071 158.916 15.2806 158.747C15.3541 158.577 15.3928 158.395 15.394 158.211Z" fill="white"/>
<path d="M152.131 128.851C154.461 127.602 156.617 131.231 154.013 132.834C153.749 132.986 153.455 133.081 153.152 133.115C152.848 133.148 152.542 133.117 152.251 133.025C151.96 132.935 151.691 132.784 151.46 132.584C151.23 132.384 151.044 132.137 150.914 131.862C150.784 131.586 150.712 131.285 150.703 130.98C150.694 130.675 150.749 130.373 150.863 130.09C150.978 129.806 151.15 129.55 151.368 129.337C151.586 129.124 151.845 128.958 152.131 128.851Z" fill="white"/>
</svg>
