<svg width="199" height="261" viewBox="0 0 199 261" fill="none" xmlns="http://www.w3.org/2000/svg">
<path d="M33.1021 100.544C32.9568 100.341 31.6356 100.682 29.1386 101.566C28.7232 101.653 29.129 102.521 29.1551 94.9467C29.1578 93.9075 29.3429 92.3021 28.3298 92.3857C28.0117 92.4118 27.7677 92.6325 27.7087 92.9601C27.2974 95.2058 27.3797 100.25 27.2111 101.393C26.4598 100.81 23.5355 97.4761 22.6115 98.7552C22.1179 99.438 23.0762 100.18 23.711 100.776C23.7562 100.819 25.9073 102.882 25.9649 102.909C25.7537 103.205 21.4338 104.563 22.0782 105.721C22.5786 106.622 25.1889 105.2 26.9739 104.405C27.1165 104.342 27.137 104.236 27.1069 105.359C27.0822 106.256 27.0411 107.756 27.2577 110.063C27.2728 110.218 27.3125 110.632 27.7567 110.636C28.1639 110.636 28.2146 110.258 28.2434 110.048C28.6972 106.801 28.3887 104.953 28.6753 105.192C31.3432 107.394 32.0259 107.583 32.3303 107.284C32.843 106.782 32.0053 106.094 30.5507 104.656C30.1984 104.309 29.2223 103.337 29.2031 103.315C29.6226 102.985 30.0832 102.963 32.9856 100.957C33.0953 100.882 33.183 100.651 33.1021 100.544Z" fill="white"/>
<path d="M193.755 104.825C193.74 104.759 193.683 104.73 193.621 104.684C193.545 104.625 193.46 104.556 193.352 104.556C188.869 104.537 189.238 104.729 188.868 104.68C188.946 104.457 191.695 99.5343 191.856 98.6774C191.958 98.1551 191.63 97.8397 191.098 97.8493C190.491 97.863 190.67 97.9179 187.475 103.602C187.36 103.805 187.56 103.662 186.104 101.836C185.407 100.963 185.239 100.535 184.502 100.606C183.909 100.664 183.954 101.44 184.263 101.955C185.007 103.2 186.093 104.935 186.109 105.073C186.071 105.11 185.862 105.133 185.694 105.152C185.477 105.177 185.207 105.207 184.896 105.283C183.906 105.516 182.598 105.701 182.232 106.707C182.044 107.224 182.369 107.734 182.963 107.72C183.152 107.713 184.154 107.424 185.557 107.262C184.992 108.67 182.744 112.187 184.039 112.187C184.308 112.187 184.39 111.936 184.487 111.799C187.841 107.136 187.122 106.652 187.671 107.439C189.615 110.228 189.753 110.362 190.579 110.599C190.617 110.61 190.655 110.605 190.688 110.584C190.757 110.542 190.745 110.498 190.79 110.358C190.887 110.055 190.923 109.782 190.505 109.004C189.182 106.534 189.032 106.673 189.379 106.592C189.398 106.591 190.3 106.396 190.328 106.39C191.917 106.055 193.171 105.789 193.736 104.929C193.757 104.899 193.763 104.86 193.755 104.825Z" fill="white"/>
<path d="M16.3528 180.716C16.3227 180.649 16.2651 180.644 16.1938 180.612C16.0279 180.539 15.9086 180.522 15.5097 180.679L15.4823 180.694C14.6199 181.035 12.994 181.714 12.909 181.714C12.887 181.67 12.8459 180.077 12.8445 180.029C12.7856 177.97 12.7513 176.725 12.218 176.242C12.048 176.087 11.8259 176.02 11.5695 176.038C10.555 176.112 10.8895 177.717 10.9814 180.661C10.9814 180.684 10.991 180.706 11.0047 180.724C11.0033 180.96 10.9992 181.302 11.0047 181.478C10.6619 181.378 9.71048 180.572 8.19145 180.155C7.39765 179.942 6.81911 180.787 7.42507 181.431C7.82266 181.855 9.40339 182.815 9.86677 183.103C9.70774 183.236 9.5158 183.325 9.25121 183.445C8.90298 183.603 8.42725 183.821 7.79935 184.268C7.5279 184.461 7.38532 184.975 7.57862 185.24C8.22435 186.126 9.74475 185.147 11.1404 184.657C11.2391 185.399 11.1706 188.197 11.9123 188.234C12.0548 188.241 12.1906 188.171 12.2838 188.007C12.569 187.514 12.4332 187.376 12.7499 184.656C12.765 184.645 12.7719 184.626 12.7719 184.626C12.8445 184.649 12.9158 184.687 12.9912 184.73C13.1873 184.837 15.2711 185.62 15.389 185.595C15.7153 185.525 15.8936 185.376 15.9237 185.171C15.9882 184.738 15.3328 184.151 13.711 183.199C13.9386 183.019 13.7521 183.218 14.3882 182.682C15.1286 182.058 16.4954 181.034 16.3501 180.717L16.3528 180.716Z" fill="white"/>
<path d="M5.44837 132.3C4.19119 130.158 1.6453 130.427 0.59651 132.183C-0.651073 134.269 0.874817 136.752 2.94361 136.752C5.44015 136.752 6.40257 133.927 5.44837 132.3ZM4.34611 133.615C4.35434 134.775 3.18627 135.445 2.4624 134.984C1.48079 134.355 1.49861 132.85 2.61595 132.318C3.37684 131.955 4.33926 132.482 4.34611 133.615Z" fill="white"/>
<path d="M198.236 162.282C196.878 160.003 192.368 160.444 192.39 163.91C192.402 165.603 193.613 167.063 195.561 167.063C198.296 167.063 199.36 164.171 198.236 162.282ZM196.511 165.17C195.426 166.149 193.891 165.232 193.918 163.943C193.936 163.074 194.829 162.238 195.591 162.287C196.562 162.328 197.864 163.953 196.511 165.17Z" fill="white"/>
<path d="M43.7012 34.7616C39.5005 34.0254 30.8168 32.2335 25.5701 30.3553C25.3905 30.2909 25.0505 30.2538 25.1204 29.9865C25.1903 29.7219 25.4659 29.8741 25.6688 29.9029C28.8275 30.3484 27.6786 29.9317 32.7622 30.9681C41.4103 32.7312 44.7623 33.2823 44.4333 34.353C44.3579 34.5998 44.0809 34.7616 43.7012 34.7616Z" fill="white"/>
<path d="M53.6461 21.9856C53.6777 22.6725 53.1814 23.0015 52.4685 22.316C51.0427 20.9478 39.24 7.49856 39.6403 7.27098C40.5424 6.75819 51.2524 18.8379 53.191 21.1808C53.4145 21.4509 53.542 21.7964 53.6461 21.9842V21.9856Z" fill="white"/>
<path d="M70.7668 20.4444C70.6489 20.9064 70.1677 21.0051 69.9716 20.7145C68.7391 18.8884 65.4844 3.4183 65.9369 2.60669C66.6539 3.15508 71.1438 18.972 70.7668 20.4444Z" fill="white"/>
<path d="M30.2286 54.6347C30.1395 54.5853 30.0984 54.4551 30.0339 54.3591C30.1272 54.307 30.2163 54.2275 30.315 54.2055C43.1445 51.2772 44.2303 50.7603 46.624 50.5615C47.607 50.4792 47.8607 50.3517 48.1938 50.4655C48.4145 50.5409 48.5132 50.8316 48.3597 50.9988C48.2363 51.1332 48.0636 51.2552 47.8922 51.3059C45.7151 51.964 32.2412 55.7493 30.2286 54.6333V54.6347Z" fill="white"/>
<path d="M43.2953 75.0348C43.2775 74.9772 43.2665 74.8867 43.2981 74.8456C43.3625 74.7647 50.641 67.2573 55.97 62.5631C56.5266 62.0723 57.1353 62.4123 56.9036 62.9429C56.7994 63.1814 56.665 63.4241 56.4882 63.6105C48.6983 71.8062 43.453 75.5654 43.2953 75.0348Z" fill="white"/>
<path d="M180.87 31.0088C180.983 31.0088 181.415 30.9512 181.444 31.1706C181.559 32.0329 162.471 35.2368 161.366 34.9599C160.711 34.7954 160.731 33.9097 161.897 33.6232C167.689 32.1974 174.92 31.453 180.87 31.0088Z" fill="white"/>
<path d="M152.61 21.8499C152.23 21.8526 151.934 21.5249 152.03 21.2576C152.429 20.1444 152.833 19.7468 157.19 15.4735C163.405 9.37815 164.307 8.84484 167.333 6.46344C167.42 6.39489 167.51 6.34965 167.564 6.46344C167.776 6.90081 164.081 10.5188 157.406 17.4257C156.231 18.6418 157.07 18.0331 153.138 21.5249C152.964 21.6785 152.737 21.7745 152.61 21.8499Z" fill="white"/>
<path d="M135.1 18.6737C134.787 19.1289 134.309 18.8616 134.235 18.4996C133.828 16.4774 139.318 2.1179 139.735 1.02113C140.124 -0.00298621 140.144 0.13274 140.292 -0.000244141C140.463 0.301369 140.422 0.194433 140.411 0.44395C140.73 0.504273 136.539 16.5803 135.1 18.6737Z" fill="white"/>
<path d="M171.673 55.3798C173.69 55.9775 174.717 56.1365 174.745 56.3778C174.78 56.6616 174.496 56.6657 174.287 56.7055C174.124 56.7356 173.954 56.8111 173.797 56.7919C172.609 56.652 171.415 56.5821 170.243 56.3011C165.306 55.1206 158.675 53.0381 156.118 52.0401C155.619 51.8454 155.733 51.3848 156.069 51.1873C156.771 50.776 163.423 52.934 171.673 55.3798Z" fill="white"/>
<path d="M159.489 77.2515C156.406 75.7119 146.801 65.2638 146.157 63.6981C146 63.3184 146.386 62.9619 146.821 63.1621C147.214 63.3417 147.107 63.2896 151.24 67.7082C152.418 68.9667 161.086 78.0494 159.491 77.2529L159.489 77.2515Z" fill="white"/>
<path d="M99.8353 74.7845C101.753 76.0678 106.051 78.4162 111.079 81.0183C111.088 80.9402 111.099 80.862 111.109 80.7839C111.176 80.2711 111.293 79.8228 111.439 79.4376C105.537 76.3639 100.81 73.7632 100.1 73.4615C99.5776 73.2408 99.1073 73.4122 97.347 74.4212C94.8327 75.8635 92.3293 77.2509 89.8999 78.5629C89.9177 78.7699 89.9246 78.9866 89.9177 79.2073C89.9068 79.561 89.9355 79.9106 89.9808 80.2561C92.6555 78.7439 95.0986 77.2961 97.1359 76.028C99.3431 74.6529 99.4076 74.4966 99.8367 74.7832L99.8353 74.7845Z" fill="white"/>
<path d="M71.325 60.6936C69.4591 65.5854 66.6678 72.7239 65.4449 78.9673C64.4989 83.7972 64.3111 88.0501 64.6963 90.0956C65.2104 92.8252 66.5499 91.8352 69.1574 90.7248C74.6427 88.3914 80.8628 85.2628 86.4714 82.2055C85.8161 80.8756 88.1495 80.2011 88.1892 79.6692C88.1947 79.6034 88.1988 79.5391 88.2043 79.4747C76.4908 85.7276 66.8707 90.0844 66.5046 90.2174C66.0549 90.3792 65.9878 90.3395 65.9795 89.8927C65.8191 81.5407 68.594 72.7226 71.802 63.7003C73.0647 60.1495 73.6062 61.1064 71.1988 58.7566C62.2094 49.9865 56.114 41.2752 53.4845 36.5728C53.272 36.193 53.3104 36.1546 53.7217 36.0765C66.0234 33.7472 78.2703 33.8363 81.8156 33.8802C85.0031 33.9199 84.7769 33.6937 85.8737 30.6954C89.8166 19.9141 95.8201 11.4703 101.85 2.79077C102.343 2.08061 102.706 3.05674 103.318 3.99448C110.189 14.5289 113.123 26.1095 116.302 33.0165C117.199 34.9632 123.405 31.2822 148.665 35.7954C150.293 36.0861 150.62 36.0998 150.275 36.6372C145.466 44.1131 136.364 52.8969 129.095 59.2076C128.433 59.7819 128.63 60.2316 129.056 61.3695C132.596 70.8059 134.407 78.6917 135.737 86.3157C136.711 91.8941 136.724 91.8557 136.395 91.7352C133.977 90.8414 122.58 85.1915 113.208 80.3574C113.145 80.3247 113.082 80.2916 113.018 80.2587C112.996 80.4712 113.071 80.4933 113.315 80.5919C114.058 80.8922 114.479 81.1978 114.058 81.9176C113.948 82.1042 113.874 82.2603 113.837 82.4372C123.109 87.1615 133.741 92.2259 136.558 93.1198C137.371 93.3775 137.801 92.7539 137.783 91.8847C137.696 87.6456 136.516 80.9168 135.862 78.1421C131.807 60.9501 129.636 60.4208 130.469 59.8505C137.481 55.0521 149.522 41.4603 151.347 36.7565C151.686 35.8832 151.521 35.6624 150.755 35.1867C149.765 34.5725 138.478 31.4824 125.13 31.7319C124.196 31.7497 120.607 31.8649 120.433 31.8909C117.332 32.3557 117.322 32.5147 117.189 31.917C115.733 25.3788 108.87 9.00119 104.468 3.36795C102.249 0.527297 102.096 0.775442 100.252 2.94706C90.5816 14.3452 86.8142 23.4238 83.9571 32.209C83.8296 32.6011 83.7281 32.7217 82.4983 32.6148C80.6585 32.4544 64.3906 32.2542 54.4716 34.759C52.4727 35.2635 51.9312 35.7392 52.2849 36.6468C53.9602 40.9585 62.6152 53.5126 71.3208 60.6936H71.325Z" fill="white"/>
<path d="M148.091 215.583C148.107 214.709 149.26 214.738 149.26 215.548C149.26 216.419 148.076 216.404 148.091 215.583Z" fill="white"/>
<path d="M148.686 203.523C148.748 202.787 149.957 202.639 149.947 203.41C149.936 204.32 148.63 204.184 148.686 203.523Z" fill="white"/>
<path d="M149.037 211.715C148.379 211.725 148.132 210.485 148.933 210.433C149.733 210.381 149.748 211.705 149.037 211.715Z" fill="white"/>
<path d="M149.245 219.778C149.248 220.656 148.133 220.537 148.104 219.806C148.093 219.531 148.406 219.167 148.655 219.167C148.92 219.167 149.244 219.502 149.245 219.778Z" fill="white"/>
<path d="M149.562 207.077C149.557 207.961 148.501 207.799 148.515 207.016C148.527 206.286 149.568 206.271 149.562 207.077Z" fill="white"/>
<path d="M105.555 200.971C105.987 200.987 106.475 202.368 105.188 202.394C103.763 202.422 100.477 202.406 98.8142 202.438C95.517 202.499 93.4277 202.639 92.1732 202.651C90.8667 202.664 91.0312 201.474 91.9319 201.372C92.1636 201.346 104.084 200.914 105.555 200.971Z" fill="white"/>
<path d="M74.0626 140.981C72.7602 140.61 73.0728 140.637 73.3635 138.764C73.4018 138.517 73.5293 138.442 73.761 138.486C74.3999 138.607 73.2702 140.16 74.1997 140.069C74.5329 140.038 74.8386 140.113 74.8523 140.446C74.8701 140.852 74.6206 140.833 74.0626 140.981Z" fill="white"/>
<path d="M100.532 91.6102C100.387 92.3588 100.233 92.7015 100.605 92.9154C100.851 93.0579 101.254 93.6557 100.587 93.6845C98.4453 93.7777 100.532 88.7792 100.532 91.6102Z" fill="white"/>
<path d="M120.748 141.938C120.473 142.138 119.669 142.606 119.558 142.278C119.272 141.428 120.64 141.73 120.231 140.692C119.998 140.099 119.402 139.27 119.771 139.073C120.319 138.779 121.69 141.255 120.748 141.938Z" fill="white"/>
<path d="M50.2022 191.193C50.1638 191.52 50.2419 191.57 50.5737 191.771C52.7193 193.071 48.9477 193.436 49.2891 191.589C49.4879 190.51 49.5674 189.454 49.9828 189.483C50.608 189.527 50.2337 190.935 50.2036 191.194L50.2022 191.193Z" fill="white"/>
<path d="M101.968 192.827C101.944 194.213 99.8207 194.034 100.491 193.41C100.956 192.978 101.386 193.03 101.196 192.519C100.882 191.678 100.377 190.808 100.839 190.702C101.016 190.662 101.208 190.673 101.281 190.85C101.559 191.532 101.896 192.198 101.968 192.827Z" fill="white"/>
<path d="M93.9898 206.206C95.066 207.023 112.553 206.644 112.691 206.631L113.159 205.718C112.496 205.399 91.6633 204.439 93.9898 206.206Z" fill="white"/>
<path d="M104.654 209.896C101.287 209.803 91.6263 210.957 89.541 211.095L89.7261 212.195C91.9827 211.917 104.834 211.309 104.86 211.308C105.41 211.3 107.365 209.97 104.654 209.894V209.896Z" fill="white"/>
<path d="M90.4158 215.386L90.5707 216.959C92.9411 216.824 107.494 215.012 107.631 215L107.634 213.731C107.634 213.731 92.9109 215.192 90.4158 215.386Z" fill="white"/>
<path d="M158.431 226.11C158.662 224.219 158.954 224.987 159.671 223.692C159.877 223.321 159.969 223.186 160.176 223.204C160.329 223.228 160.49 223.101 160.523 222.975C160.606 222.661 160.861 222.724 161.229 222.621C161.669 222.497 165.532 218.707 167.877 214.218C169.109 211.859 167.66 209.893 166.259 207.991C159.872 199.324 156.277 198.189 154.924 197.761C154.552 197.645 154.4 197.588 154.393 197.51C154.074 193.798 152.415 194.409 152.132 193.896C152.017 193.685 152.102 193.294 152.1 192.939C152.089 191.764 151.927 191.109 151.829 190.717C151.754 190.407 151.865 190.167 152.163 189.999C153.405 189.301 155.487 188.34 156.163 187.192C156.392 186.807 156.421 186.501 156.251 186.282C155.772 185.668 153.909 186.148 151.522 186.839L151.003 186.988C150.537 187.117 150.915 187.124 149.979 186.331C147.633 184.346 143.139 186.126 143.558 189.424C143.819 191.455 144.177 191.758 143.839 191.88C143.516 191.995 143.166 192.483 142.885 192.619C142.632 192.738 141.221 192.985 140.246 194.553C139.757 195.34 139.595 196.172 139.766 197.026C139.795 197.17 139.624 197.295 139.254 197.399C136.979 198.046 137.503 198.335 136.72 197.196C136.682 197.14 136.631 197.062 136.616 197.082C136.658 197.022 136.902 196.908 137.341 196.747C139.337 196.008 132.208 170.662 131.752 168.317C132.473 166.669 130.726 160.756 129.905 158.174C130.745 158.169 133.912 159.619 136.586 158.982C139.092 158.384 140.77 156.669 142.78 152.658C146.761 144.706 146.459 144.056 147.028 144.038C148.08 144.008 151.366 141.288 149.881 140.247C150.049 139.892 150.367 139.1 150.102 138.675C149.999 138.51 149.822 138.421 149.602 138.435C149.465 138.443 149.478 138.435 149.469 138.29C149.456 138.095 149.432 137.691 148.83 137.671C147.93 137.66 147.153 138.841 146.684 139.264C146.507 138.505 146.088 138.362 145.43 138.781C143.453 140.034 144.19 142.227 143.663 142.686C134.196 150.997 135.25 149.973 132.327 148.922C126.776 146.925 123.46 146.148 122.517 146.572C122.437 146.481 122.402 145.915 122.137 145.432C122.067 145.305 122.068 145.28 122.336 145.035C122.633 144.761 123.084 144.347 123.301 143.41C123.688 141.736 123.919 139.133 123.301 137.322C123.316 137.293 123.409 137.224 123.476 137.175C124.634 136.336 125.144 134.636 123.786 133.881C123.652 133.807 123.651 133.752 123.646 133.52C123.575 131.279 120.5 132.189 120.02 131.702C119.852 131.532 118.588 131.321 117.485 132.322C116.327 133.375 116.227 134.196 116.09 134.271C116.09 134.271 116.061 134.278 115.968 134.244C115.647 134.129 115.332 134.189 115.078 134.418C114.68 134.776 114.513 135.463 114.61 135.856C114.953 137.234 112.653 136.396 114.994 140.201C114.362 140.428 113.914 141.414 114.137 142.071C114.466 143.026 114.897 143.117 115.384 143.132C115.717 143.143 115.957 143.151 116.213 143.767C116.447 144.334 116.593 144.337 116.508 144.503C115.194 147.045 116.756 145.031 109.767 147.996C110.609 143.562 110.949 141.997 111.261 136.513C111.626 130.086 112.052 131.425 111.272 120.061C110.877 114.309 110.47 108.359 111.605 106.336C118.152 94.6763 118.466 98.5671 114.71 85.5772C113.928 82.8695 113.862 82.6502 114.232 82.0168C114.739 81.1476 114.183 80.6252 113.217 80.3346C113.201 80.2578 113.409 79.4503 113.567 78.3919C113.823 76.6769 111.339 77.3843 110.899 80.7541C109.288 93.1299 109.689 92.9324 109.43 93.3245C106.511 97.75 106.186 97.9516 105.511 97.9694C103.792 98.0133 103.29 98.1737 103.122 98.1366C103.071 98.0612 103.07 97.6719 102.876 97.0015C102.747 96.5518 104.428 96.061 104.491 94.0909C104.508 93.6028 105.243 94.0087 105.929 92.6144C106.375 91.7082 105.977 90.5223 104.831 90.4126C104.856 90.1192 105.24 89.3405 104.547 88.8127C105 87.7913 104.416 87.5418 104.347 87.3759C104.007 86.5725 103.37 86.0831 102.396 85.8774C100.839 85.5498 100.878 83.8936 99.8479 84.1582C99.3366 84.2857 99.2502 84.8519 99.1172 85.3277C98.5263 85.207 97.4104 84.6381 96.8592 85.0672C96.4479 85.3894 96.5 86.0186 96.6371 86.5218C96.7029 86.7686 96.7139 86.8248 96.5905 86.9468C96.1024 87.4335 96.474 87.9503 96.6947 88.2602C96.9017 88.5481 96.9058 88.4494 96.7619 88.6838C96.511 89.0896 95.99 89.9341 96.4027 90.6073C96.4287 90.6553 96.3808 90.8239 96.3355 90.8582C95.2689 91.3983 94.992 92.7309 95.7638 93.6495C96.0558 93.9963 96.3917 94.2403 96.8071 94.1608C96.9045 94.4062 96.9058 95.6127 97.9505 96.486C97.9958 96.523 98.0561 96.5751 98.0561 96.5532C98.0616 96.6395 97.9793 96.7698 97.9012 96.8973C97.7147 97.1975 97.7078 97.2565 97.6078 97.5553C97.4858 97.458 97.2746 97.2647 97.0251 97.0344C91.1532 91.6259 91.0915 93.182 90.8544 87.8653C90.5363 80.7459 90.0757 80.543 90.1182 79.2159C90.1566 77.9628 89.7617 76.5905 89.1105 76.5658C88.2166 76.5315 88.037 78.8718 87.9794 79.6532C87.9109 80.0289 85.291 80.9282 86.4261 82.5378C87.2665 83.7291 86.847 82.9202 86.5427 84.6436C86.3274 85.8815 84.781 90.3948 85.3417 94.1759C85.5707 95.7183 85.9312 96.5148 86.1451 96.9905C86.3425 97.4265 86.3658 97.5087 86.2465 97.676C85.3582 98.9304 91.5166 104.684 91.1478 106.457C88.8048 117.759 89.1873 117.648 89.1119 117.862C88.739 118.914 89.2832 119.705 89.2791 119.886C89.2051 120.117 89.1557 120.324 89.079 121.288C88.9844 122.475 87.9794 124.154 87.2542 130.134C86.0395 140.146 85.934 144.551 85.8887 146.432C85.8764 146.932 85.8668 147.318 85.8394 147.482C84.2353 146.814 80.5461 146.133 78.9612 146.052C78.8214 145.947 78.8461 145.731 78.6349 145.153C78.4786 144.725 78.3306 144.319 78.3594 144.237C78.4622 144.157 79.8619 144.248 80.0004 144.203C83.484 144.201 83.5334 143.941 82.8068 139.277C82.4654 137.081 81.6469 137.318 81.6031 135.81C81.455 130.715 71.4538 130.235 69.6043 136.492C69.0834 138.26 68.0839 137.841 67.7014 140.668C67.5616 141.703 67.3847 142.992 68.3362 143.316C71.0014 144.222 71.791 143.284 72.4094 144.038C72.6219 144.296 73.0318 144.545 73.683 144.8C73.7186 144.88 73.6199 146.029 73.6035 146.095C73.5527 146.108 73.3827 146.077 73.2319 146.051C72.0844 145.848 70.9424 145.9 69.7538 145.412C58.8902 140.952 64.2726 142.411 55.6163 132.425C55.1859 131.928 55.0817 131.427 55.2681 130.748C55.8905 128.458 54.6196 128.371 54.1796 128.918C54.015 129.122 53.7957 129.469 53.6517 129.706C53.3652 129.341 53.4351 129.229 52.7167 128.312C52.3658 127.859 51.6268 128.101 51.598 128.745C51.5884 128.945 51.6515 129.133 51.6967 129.323C51.3184 129.06 50.9468 128.844 50.4958 129.048C50.1379 129.207 50.2367 129.949 50.3984 130.178C50.0872 130.29 49.9063 130.441 49.8432 130.64C49.7513 130.929 49.9474 131.2 50.1037 131.42C50.1654 131.505 50.2682 131.649 50.2353 131.705C48.8739 132.348 51.1552 133.79 52.6592 133.877C52.9553 133.893 53.0842 134.003 53.165 134.311C55.7589 143.915 55.2996 144.673 62.4931 151.594C66.9625 155.896 66.1495 152.921 67.3505 157.354C69.2081 164.211 69.2657 163.378 68.9189 164.599C67.4204 169.881 68.0236 166.105 66.0439 171.422C65.0637 174.054 62.7632 180.217 62.7015 183.045C62.6933 183.5 62.9442 183.748 63.4487 183.789C63.5104 183.795 63.483 183.789 63.5419 183.805C63.5419 183.898 63.4789 184.15 63.4062 184.438C62.4589 188.247 61.6226 195.913 61.0673 197.073C59.4359 196.454 56.7351 196.146 55.2009 196.664H55.1776C54.048 193.937 55.508 195.522 56.3498 193.905C57.123 192.429 56.3251 192.288 56.842 191.914C57.0682 191.751 57.4082 191.504 57.267 190.724C57.0942 189.768 57.6975 189.575 57.0079 188.714C56.6597 188.279 57.8072 187.453 56.1675 186.482C55.9605 186.275 56.2854 184.687 54.7485 184.679C54.159 184.675 54.0548 183.519 53.0019 183.877C52.4179 184.08 51.6748 182.554 50.578 183.868C50.0296 184.526 50.456 184.193 49.6595 184.256C48.6299 184.33 47.8594 185.167 47.991 186.175C48.0596 186.701 46.4775 186.815 47.0053 188.37C47.1204 188.719 46.3184 188.869 46.3568 189.638C46.4391 191.368 47.2109 190.596 47.5071 192.591C47.9526 195.587 49.4525 195.472 48.985 196.722C48.937 196.852 49.0494 196.851 48.926 196.859C45.2148 197.063 38.4532 200.402 34.2991 205.048C29.3719 210.559 32.5498 215.6 37.2138 221.617C37.6676 222.203 38.216 222.373 38.8439 222.125C38.9015 222.101 38.9289 222.1 38.9289 222.1C39.066 222.223 39.0495 223.036 39.9544 223.21C39.4691 223.962 39.1181 224.691 39.0948 226.091C39.0783 227.079 39.6541 227.127 39.964 227.152C40.0202 227.156 40.1038 227.164 40.1025 227.141C40.1025 227.141 40.1066 227.167 40.0874 227.236C38.8878 231.668 38.6561 235.709 38.4107 239.988C37.7814 250.986 36.9383 253.155 38.6725 253.799C38.6725 253.799 36.4282 255.78 35.7167 256.428C34.9284 257.143 34.8722 258.103 34.8982 258.761C34.9887 261.186 41.0306 258.824 42.2604 254.622C42.3769 254.222 43.752 254.762 44.1866 253.481C45.3574 250.035 50.3902 234.912 52.3507 232.053C52.9279 233.956 54.8664 242.35 55.4477 245.022C57.2752 253.41 56.938 253.464 57.9018 253.814C59.3234 254.329 59.1178 253.765 59.2672 255.201C59.344 255.94 59.5469 256.866 60.3859 257.483C62.8688 259.3 64.503 260.501 66.2948 260.063C67.1188 259.86 67.1051 258.803 66.6129 258.103C64.1054 254.548 63.0772 255.307 62.8674 253.207C62.8578 253.117 62.8509 253.058 63.7243 252.818C64.7347 252.54 64.8197 251.94 64.6318 246.406C64.2672 235.64 63.8463 231.806 63.6653 230.168C63.4843 228.519 63.483 229.609 64.6442 226.232C64.8443 225.649 64.9773 225.264 65.1048 225.226C66.0741 224.925 66.3332 223.267 66.6334 223.267C67.9674 223.375 72.955 214.924 73.5637 213.83C74.9264 211.393 73.9407 209.83 72.4519 207.463C70.6723 204.636 68.6296 201.661 65.9164 199.715C65.5189 199.43 65.3904 199.151 65.5312 198.881C71.8349 186.689 71.7828 185.5 72.068 185.241C72.0831 185.241 76.8554 185.666 77.423 185.703C78.7364 185.79 78.6774 185.787 78.709 185.968C80.0265 193.32 83.3209 201.616 83.8282 202.085C84.3121 202.537 80.7352 203.936 77.6588 210.883C77.0076 212.352 77.1269 213.721 78.0166 214.948C81.6716 220.002 87.0623 223.831 87.3776 224.565C87.124 225.079 87.405 225.511 87.4516 225.903C87.5928 227.207 86.7867 228.42 87.7903 228.587C87.8711 228.886 87.3228 229.927 87.5257 236.643C88.0891 255.268 88.2139 254.415 90.0853 255.1C90.1428 255.122 90.1689 255.139 90.1689 255.139C90.1552 255.547 87.6326 257.05 86.6592 258.905C85.9559 260.247 87.7752 261.587 92.5777 257.714C93.1727 257.232 93.3989 256.585 93.233 255.841C92.9026 254.353 94.2722 255.048 94.5862 253.577C94.5944 253.535 96.3506 244.285 96.3533 244.27C96.9017 241.125 99.3037 232.663 99.6697 231.705C100.303 231.591 100.326 231.638 100.426 231.853C102.37 236.045 106.594 249.23 107.767 252.974C108.183 254.309 109.129 253.975 109.147 254.244C109.297 256.444 109.151 257.072 110.389 257.82C112.237 258.936 114.706 260.694 115.847 260.694C116.346 260.694 116.683 260.369 116.516 259.558C115.987 257.003 112.618 255.48 112.609 254.407C112.602 253.831 114.028 254.148 114.065 253.236C114.786 235.96 112.458 230.065 112.411 228.708C112.769 228.602 112.842 228.446 112.888 228.223C113.113 227.13 113.072 226.713 113.038 223.778C113.03 222.928 116.06 220.877 120.64 213.819C121.513 212.474 120.648 210.877 120.015 209.71C118.06 206.103 115.979 204.135 114.602 202.832C113.529 201.816 113.063 201.349 113.3 200.938C113.507 200.574 113.061 200.317 113.632 200.177C116.064 199.579 114.074 197.438 120.286 178.097C120.5 177.428 120.887 177.07 121.543 176.966C122.391 176.822 122.503 177.425 132.066 196.936C132.308 197.431 132.687 197.679 133.256 197.717C133.949 197.767 133.582 198.943 134.337 199.674C132.219 201.767 125.29 208.559 125.555 211.502C125.758 213.768 125.795 214.68 127.341 217.137C128.586 219.117 130.106 220.973 131.99 222.814C132.874 223.676 133.618 223.428 133.788 223.45C134.322 224.052 134.332 224.149 134.344 224.252C134.366 224.451 134.417 224.653 134.857 225.259C135.797 226.553 134.965 227.769 136.041 228.256C136.481 228.443 135.248 228.376 135.963 252.918C135.995 253.928 136.475 254.314 137.219 254.549C136.562 255.159 136.059 255.604 135.658 255.959C134.872 256.652 133.044 258.287 133.764 259.048C134.389 259.71 136.704 259.03 139.957 257.23C140.352 257.012 140.775 256.666 140.534 255.919C140.386 255.458 140.644 255.028 140.694 254.522C140.697 254.493 140.704 254.423 140.885 254.368C141.613 254.149 141.72 253.57 142.006 252.027C143.325 244.937 144.796 243.066 147.071 232.595C147.19 232.045 147.294 231.569 147.374 231.276C150.046 240.193 150.187 239.739 155.541 252.914C155.787 253.524 156.175 253.916 156.696 254.078C156.968 254.164 156.853 254.155 157.008 256.72C157.069 257.748 157.888 257.342 159.046 257.781C160.536 258.347 162.136 259.146 163.539 259.564C164.396 259.821 164.951 258.912 164.205 257.94C163.173 256.588 162.268 255.711 161.609 255.069C161.06 254.537 160.664 254.152 160.676 253.935C160.689 253.684 161.658 253.372 161.519 252.289C161.075 239.278 157.668 228.003 157.895 227.73C158.279 227.271 158.35 226.679 158.42 226.107L158.431 226.11ZM87.6463 81.7302C87.5531 81.6219 87.4461 81.4986 87.4352 81.4739C87.464 81.4081 87.7094 81.2436 87.9932 81.0516C89.0228 80.3593 89.1242 80.3935 89.1064 79.501C89.094 78.9814 89.1818 81.016 89.2092 81.5959C89.4601 87.1168 89.722 91.7561 90.3978 92.6144C90.7008 93.001 90.7159 92.8173 87.198 96.2941C85.1703 91.8782 89.1599 83.4961 87.6463 81.7302ZM97.9505 93.9744C97.8326 93.5411 97.6859 93.0024 97.0251 93.0024C96.4699 92.9982 96.256 91.8823 96.7386 91.9988C98.1616 92.3361 97.6283 90.2659 97.9368 89.4282C97.9711 89.335 98.0136 89.2185 98.0177 89.2034C98.2055 89.165 100.485 90.037 102.656 89.6462C102.993 89.5818 102.939 89.4886 103.189 90.2892C103.515 91.3366 103.53 91.9193 104.521 91.6506C104.606 91.6273 104.749 91.5862 104.782 91.6012C104.782 91.6012 104.816 91.6396 104.816 91.811L104.813 91.8425C104.804 92.4156 104.575 92.4704 104.228 92.5541C103.932 92.6253 103.523 92.7227 103.445 93.2697C102.945 96.7712 100.676 95.1301 102.007 98.212C102.204 98.6686 102.407 99.1416 102.285 99.3787C101.684 100.545 100.433 102.718 99.9837 103.12C97.4899 98.0187 98.392 98.9606 99.2968 96.7341C99.6971 95.7457 98.4646 95.8841 97.9505 93.9744ZM37.4099 256.535C40.1532 254.307 39.8488 254.122 40.0695 254.194C40.4726 254.326 40.5974 254.305 40.8099 254.366C40.7852 254.437 40.7276 254.556 40.6796 254.658C40.2395 255.579 39.8694 256.273 39.1236 256.813C38.1049 257.544 36.5448 258.362 36.3035 258.219C36.3501 257.395 36.5544 257.23 37.4099 256.535ZM58.6476 252.666C58.3528 252.471 55.0899 234.764 53.2487 230.479C53.1472 230.241 53.7614 229.088 53.0485 228.985C50.6 228.601 43.8274 250.445 43.0966 252.348C42.8266 253.05 42.8924 253.022 42.4331 253.029C41.0073 253.049 40.8441 252.945 38.9988 252.549C38.9988 252.549 38.9906 252.531 38.9947 252.475C39.6788 245.009 40.2478 226.949 42.2494 225.222C42.9541 224.613 43.0555 223.997 42.9993 223.368C44.432 223.877 45.9483 224.066 47.3754 224.367C49.9145 224.899 51.2813 224.42 53.0855 224.063C53.2953 224.022 53.2528 223.626 54.185 223.892C56.2758 224.484 59.1425 224.159 61.2538 223.685C60.5793 224.503 59.126 225.915 59.4235 226.709C59.5195 226.965 59.7676 227.124 60.1611 227.178C60.7822 227.266 61.2401 226.945 61.5513 226.801C61.6047 227.781 61.7021 228.626 62.1188 229.573C62.6645 230.814 63.2047 249.503 63.2101 249.64C63.2938 251.888 63.2389 251.807 59.4948 252.603C59.0986 252.686 58.7847 252.751 58.6503 252.666H58.6476ZM35.5604 205.525C38.7959 202.159 42.9541 200.005 44.5142 199.403C43.8027 200.337 43.2996 201.023 43.4613 201.745C43.6574 202.627 45.0379 203.414 45.8167 203.752C45.8674 203.774 45.9304 203.802 45.9716 203.823C45.1339 205.127 44.2935 205.953 45.2792 207.208C45.3204 207.262 49.399 212.495 50.0365 212.6C51.1538 212.784 51.2676 211.842 50.5383 211.16C48.8136 209.539 47.6825 207.648 46.6228 206.622C46.1361 206.15 46.1361 206.168 47.359 204.469C47.4687 204.317 47.6195 204.205 47.736 204.013C48.7821 202.321 43.8342 202.347 44.9187 200.858C45.8071 199.639 47.688 198.426 48.2131 198.307C47.5112 200.636 51.3088 211.874 51.9942 213.603C52.3795 214.576 52.156 218.057 52.7003 222.766C52.5495 222.881 51.3705 222.958 49.6595 223.193C46.6036 222.837 44.6746 222.425 43.2022 222.06C45.0091 215.245 45.149 215.915 44.458 212.295C43.9124 209.439 43.9727 209.133 43.6012 208.941C43.2666 208.767 43.1186 208.804 39.9297 210.292C39.4101 210.534 39.4883 209.076 38.3791 208.145C38.1941 207.99 38.0337 207.957 37.902 208.049C37.5319 208.307 37.8733 209.428 39.4252 213.748C40.2423 216.022 41.4693 219.44 41.3048 219.954C39.8077 220.441 38.4395 221.153 38.1666 220.778C32.7595 213.353 31.1857 210.076 35.5632 205.523L35.5604 205.525ZM53.9575 191.657C54.148 191.889 54.4688 191.945 54.7704 191.919C54.9542 191.9 54.9651 191.918 54.9884 191.966C55.3421 192.701 55.2626 193.322 54.4483 193.408C53.5955 193.5 53.2884 193.696 53.1952 195.526C53.1664 196.113 53.3679 196.479 53.516 196.747C53.697 197.074 53.7655 197.198 53.442 197.555C52.8141 198.249 52.629 198.904 52.5371 198.97C52.5371 198.97 52.5193 198.976 52.4316 198.932C52.2945 198.862 52.1478 198.881 52.0011 198.928C51.9408 197.649 50.36 197.42 50.2257 197.235C50.1969 197.174 50.4917 195.839 50.5054 195.773C50.6767 194.864 46.8353 191.919 49.8473 187.554C50.515 188.404 51.5418 187.768 51.6707 188.126C51.7831 188.443 53.3227 189.295 53.5421 189.373C54.3263 189.715 53.442 191.031 53.9588 191.657H53.9575ZM53.8779 207.108C53.6833 205.854 53.405 203.696 53.0471 202.125C53.0033 201.936 53.0924 201.704 53.1609 201.616C53.8642 202.311 54.4716 201.864 54.7883 201.583C54.7348 202.102 54.5936 202.897 53.8779 207.108ZM53.8889 200.489C53.8889 200.489 53.9163 200.477 53.9328 200.476C54.1138 200.621 54.1494 200.629 53.8889 200.489ZM53.9575 200.406C53.3748 199.338 53.5517 199.885 54.403 198.382C54.7513 198.841 54.3249 199.912 53.9575 200.406ZM49.4387 198.345C49.5018 198.353 50.3943 198.789 50.4519 198.815C50.9249 199.028 50.7014 199.456 50.4519 200.249C49.8213 199.62 49.2783 198.85 49.3908 198.486C49.4196 198.393 49.4387 198.345 49.4387 198.345ZM51.2334 201.601C51.4157 201.771 51.5994 201.82 51.5775 202.007C51.2937 204.413 51.2896 206.417 51.2882 207.628C51.1991 207.285 49.8487 201.98 49.7376 201.504C50.3409 201.982 50.5588 202.055 51.2334 201.6V201.601ZM41.2637 223.132C41.2911 223.044 41.5379 222.873 41.6722 222.839C41.6845 222.92 41.6818 223.068 41.6804 223.173C41.6708 223.888 41.982 223.485 40.3437 225.371C40.3588 224.651 41.3034 223.888 41.2637 223.132ZM40.282 211.623C42.1644 210.826 42.4482 210.652 42.8732 210.477C43.4942 215.669 43.4915 214.884 43.3708 215.422C42.928 217.404 42.6333 218.73 42.4537 219.213C42.3851 219.006 42.3001 218.668 42.2179 218.338C41.5091 215.514 40.1929 211.861 40.2053 211.66C40.2053 211.66 40.2533 211.635 40.282 211.623ZM65.3105 214.161C65.2789 214.417 64.4564 215.172 62.6686 219.31C62.3985 218.886 61.9228 217.517 61.8104 217.11C61.8104 217.11 63.047 212.222 63.1142 211.973C63.3226 212.166 63.3829 212.366 65.3105 214.161ZM61.3127 225.438C61.9406 224.721 62.0846 224.57 62.3026 224.281C62.3656 224.2 62.3368 224.207 62.4054 224.252C63.058 224.686 63.6749 224.913 63.8847 225.042C63.7777 225.268 63.291 226.014 62.9455 226.987C62.7454 225.98 63.0484 224.691 61.3127 225.44V225.438ZM62.8647 222.722C62.803 222.534 62.9963 222.238 63.1526 221.968C63.5693 222.184 64.0519 222.61 65.3393 223.177C64.869 223.768 64.8676 223.952 64.6455 223.848C63.4816 223.319 62.9483 222.981 62.8647 222.722ZM63.4939 220.361C66.1577 214.967 66.0453 214.979 66.3387 214.723C66.994 214.144 66.6074 213.83 61.3497 208.356C60.5244 207.5 59.8293 208.496 60.5203 209.244C62.2313 211.092 62.2724 211.006 62.1147 211.386C62.0942 211.435 60.2297 216.931 60.6862 218.114C60.7671 218.323 60.8438 218.533 60.922 218.742C61.9571 221.531 62.2971 221.255 62.0901 221.479C61.9091 221.672 61.7555 222.234 61.5951 222.341C61.2551 222.454 56.5596 222.983 54.0493 222.53C53.1911 222.374 54.148 219.673 53.5434 214.213C53.4187 213.075 54.4154 213.681 55.7562 203.36C56.3046 199.157 56.2977 199.283 55.848 198.011C56.2593 198.023 57.8688 198.789 58.5571 200.433C59.0301 201.561 56.5829 202.269 56.5925 203.248C56.6021 204.255 58.7984 204.835 58.2116 206.243C57.1381 208.819 56.1949 209.077 54.7444 211.838C54.6663 211.985 54.6635 212.347 54.8952 212.498C55.2146 212.705 55.6712 212.408 56.3402 211.561C60.4874 206.312 60.3722 205.537 58.2788 203.245C58.468 203.063 58.8381 202.89 59.4647 202.214C59.6785 201.981 59.8321 201.603 60.024 201.491C60.3846 201.286 61.2483 201.7 64.2891 200.149C64.4029 200.092 64.4084 200.094 64.4947 200.167C68.5885 203.604 70.5599 206.93 71.7376 208.917C73.672 212.182 73.949 211.065 67.0968 221.379C66.4278 222.385 66.4744 222.089 63.52 220.552C63.4651 220.523 63.4446 220.504 63.4446 220.504C63.4446 220.504 63.4514 220.459 63.498 220.364L63.4939 220.361ZM59.551 199.258C59.4208 199.187 59.1809 198.573 58.2651 197.738C59.1918 197.735 60.3188 197.997 60.6876 198.172C60.6327 198.226 59.6237 199.232 59.551 199.258ZM61.628 199.155C61.7802 198.806 62.197 198.246 62.4067 197.117C64.3823 186.52 64.4015 184.309 64.6318 184.069C64.7826 184.065 66.4991 184.501 69.8977 185.003C70.2994 185.062 70.612 185.108 70.7546 185.147C70.7464 185.163 70.7368 185.181 70.7285 185.197C69.47 187.615 69.6331 188.65 64.5372 198.075L64.3412 198.438C64.1479 198.793 62.7385 199.365 61.628 199.155ZM63.1251 150.465C55.4244 143.386 57.3794 142.803 53.9739 133.6C53.7765 133.072 52.5097 132.825 51.4733 132.537C51.8859 132.422 52.1862 132.002 51.8366 131.66C52.1752 131.727 52.5344 131.439 52.1615 130.933C52.1807 130.94 52.2013 130.944 52.2218 130.945C52.4343 130.956 52.6934 130.948 52.825 130.767C52.9676 130.571 52.8675 130.323 52.762 130.058C52.6523 129.777 52.6345 129.751 52.8264 130.135C53.091 130.664 53.2994 131.083 53.6367 131.11C54.0411 131.135 54.2248 130.627 54.3921 130.256C53.8642 134.16 55.9234 133.314 60.5038 141.066C61.2263 142.293 61.1784 142.408 62.3985 143.183C68.147 146.832 69.895 146.912 70.7354 146.95C70.8218 146.954 70.8985 146.957 70.9671 146.965C70.5887 147.741 67.8495 150.404 67.0982 153.562C66.5306 153.409 64.226 151.48 63.1251 150.465ZM145.254 141.658C145.578 141.857 146.07 141.457 146.958 140.52C146.81 140.803 146.727 141.125 146.808 141.517C146.834 141.643 146.971 141.719 147.094 141.662C147.759 141.361 148.133 140.471 148.658 140.01C147.911 141.155 147.56 141.433 147.963 141.857C148.074 141.974 148.18 142.013 148.276 142.017C147.804 142.488 147.002 142.906 146.825 142.906C145.683 142.704 145.557 144.566 145.186 144.696C145.156 144.707 145.113 144.696 145.058 144.666C144.736 144.487 143.839 144.03 143.839 144.03C143.866 143.996 143.904 143.948 143.938 143.905C145.501 141.976 144.666 141.964 145.134 140.804C145.01 141.351 145.091 141.557 145.254 141.657V141.658ZM126.168 152.723C127.802 156.585 130.564 163.158 130.468 167.376C130.457 167.855 130.331 167.667 122.831 168.705C116.957 169.516 116.171 169.276 112.317 169.597C112.3 169.552 112.289 169.339 112.287 169.291C113.86 169.076 113.918 168.217 113.255 167.724C111.416 166.364 111.212 168.222 111.472 163.954C111.742 159.496 112.302 157.328 111.437 156.835C110.609 156.362 108.643 158.045 108.293 158.226C108.174 157.941 108.133 157.186 107.583 156.263C107.424 156.011 106.805 156.077 106.836 156.504C106.992 159.079 109.072 163.709 108.479 164.05C107.427 164.655 107.115 165.025 106.969 165.151C103.798 162.179 99.9261 156.886 102.883 153.693C103.811 152.69 105.584 151.204 105.902 151.291C106.11 151.951 110.152 154.843 111.475 154.593C113.126 154.283 110.63 150.709 109.558 149.463C109.435 149.314 112.085 148.303 114.819 147.283C114.471 148.028 113.817 149.748 115.758 152.279C116.479 153.221 117.058 152.032 118.657 150.356C119.383 149.599 120.371 153.143 121.48 152.108C122.351 151.299 123.267 149.602 123.22 147.789C123.22 147.738 123.216 147.605 123.226 147.536C123.294 147.538 123.426 147.564 123.511 147.581C126.993 148.266 129.251 149.115 130.899 149.735C135.593 151.499 136.168 151 142.892 144.927C143.118 144.987 143.872 145.389 144.696 145.789C138.951 158.703 137.843 158.915 129.86 156.965C128.7 156.681 128.22 152.323 125.651 149.955C125.479 149.798 125.353 149.826 125.277 149.88C125.052 150.038 125.109 150.224 126.168 152.723ZM119.76 212.407C119.705 212.748 119.938 212.753 119.206 213.805C111.947 224.21 111.775 221.383 111.884 224.71C111.989 227.946 111.796 224.417 110.695 224.053C110.274 223.916 109.966 224.206 109.55 224.47C109.661 224.156 109.86 223.742 110.072 223.637C110.188 223.581 110.184 223.491 110.388 222.917C110.662 222.151 110.518 222.545 111.009 220.187C112.376 213.623 113.409 212.112 113.298 211.476C113.233 211.092 112.686 210.926 112.42 211.224C112.307 211.351 112.276 211.494 112.182 211.685C112.165 211.72 112.144 211.763 112.159 211.767C112.008 211.767 111.02 211.271 110.487 211.017C112.786 209.302 114.236 204.21 114.709 204.671C116.161 206.038 119.71 210.667 119.76 212.407ZM110.241 254.286C110.418 254.297 110.814 254.371 111.295 254.442C112.08 257.213 113.662 256.839 114.949 259.082C110.418 256.604 110.419 256.285 110.422 255.783C110.428 254.988 110.278 254.51 110.241 254.286ZM108.401 211.138C109.841 212.037 110.743 212.388 111.283 212.596C111.512 212.685 111.748 212.777 111.77 212.829C111.794 212.887 111.692 213.146 111.583 213.42C110.485 216.181 110.026 219.219 109.645 220.748C107.739 217.607 107.975 219.432 108.401 211.138ZM109.346 210.455C108.259 210.048 108.414 210.049 108.408 209.14C108.397 207.193 108.392 206.989 108.411 206.879C108.433 206.753 108.334 206.639 108.212 206.638L107.405 206.623C107.298 206.602 107.193 206.719 107.195 206.829C107.206 209.875 106.866 215.484 106.829 217.744C106.825 218.075 106.652 218.271 106.312 218.332C101.042 219.272 94.1392 219.932 91.4754 219.897C91.0285 217.818 90.0743 211.243 89.833 210.087C90.332 209.569 92.1088 207.587 92.4749 206.914C92.6078 206.67 92.5174 206.293 92.2857 206.124C92.2061 206.066 91.9196 205.905 91.5837 206.254C90.8036 207.064 89.0735 209.368 88.6937 209.255C85.4486 205.37 84.2107 204.724 83.7994 204.205C83.8926 204.066 84.4259 203.355 84.7193 203.076C84.9565 202.851 84.8646 203.008 87.6888 204.455C88.2002 204.716 88.9336 204.865 89.3257 204.434C89.8179 203.891 89.493 202.718 88.3606 200.947C88.3112 200.869 88.1316 200.607 88.1056 200.565C88.1728 200.514 88.4511 200.349 88.5292 200.303C90.3965 199.173 93.5922 197.887 96.3835 197.983C96.9333 198.002 97.4748 199.079 99.2187 199.475C100.613 199.797 101.318 199.079 101.833 198.556C102.502 197.875 102.483 197.987 103.388 198.123C105.369 198.422 107.243 198.7 109.735 200.247C109.187 200.724 107.062 201.545 107.435 202.542C108.017 204.099 111.689 201.875 112.303 202.251C112.564 202.41 113.708 203.515 113.682 203.799C113.089 204.886 110.044 210.718 109.342 210.455H109.346ZM91.2424 255.294C91.2547 255.188 91.2533 255.154 91.4741 255.154C91.6139 255.154 91.7976 255.173 91.9566 255.192C91.836 256.327 92.0677 256.481 91.6523 256.791C89.9139 258.091 88.5744 258.817 88.1316 258.92C88.4278 258.367 89.5547 257.306 90.2306 256.728C90.8146 256.226 91.167 255.924 91.2424 255.294ZM88.3949 224.566C88.6814 223.9 87.3228 222.621 84.6919 220.227C81.6716 217.48 77.5368 213.716 78.4594 212.01C80.1471 208.888 79.5357 209.124 82.8822 204.917C84.3011 205.994 86.5948 208.52 87.8369 210.012C87.9123 210.103 87.8739 210.05 85.7955 212.022C85.7365 211.93 85.6529 211.761 85.6063 211.67C85.3074 211.073 84.4547 211.479 84.6919 212.077C88.8199 222.621 88.5443 222.215 88.7211 222.659C89.1667 223.761 88.9049 224.139 89.0255 224.539C89.2558 225.316 88.9419 226.099 88.6444 226.569C88.6841 225.736 88.1796 225.072 88.3962 224.568L88.3949 224.566ZM89.6808 221.833C88.9007 219.54 88.2769 217.678 86.4001 213.345C86.252 213.009 86.3096 213.078 88.8377 210.87C90.0949 220.493 90.3937 219.681 89.9783 220.859C89.8728 221.159 89.7891 221.384 89.6808 221.833ZM82.7533 151.945C82.4572 154.226 86.6743 151.801 88.8486 150.685C89.7082 150.563 95.029 157.191 95.1044 161.371C95.4512 163.538 88.5758 168.537 85.6392 170.672C84.0105 171.855 83.9529 171.884 83.6705 172.356C83.469 172.017 83.1715 171.946 82.8698 172.209C82.852 172.048 82.7931 171.84 82.6025 171.766C82.3475 171.667 82.0719 171.868 81.7374 172.205C82.013 171.544 82.6697 170.487 83.5704 170.21C85.4857 169.619 85.487 168.792 89.3189 161.267C89.3312 161.243 89.3408 161.226 89.349 161.212L89.3655 161.222C89.8056 161.461 90.247 161.238 90.2964 160.924C90.4691 159.828 85.779 157.231 84.6891 156.504C83.8528 155.948 83.3003 155.579 82.8561 156.066C82.3914 156.574 83.5361 157.05 84.0119 157.353C82.741 157.686 80.9231 156.101 81.5373 152.579C82.3653 147.848 82.4846 147.926 83.07 148.073C83.07 148.073 84.6123 148.465 85.2594 148.643C84.5616 149.251 82.9178 150.712 82.7519 151.946L82.7533 151.945ZM89.3614 127.759L90.6844 120.499C91.4384 120.161 109.069 121.954 110.008 121.121C110.008 121.121 110.022 121.15 110.023 121.243C110.184 131.359 110.463 131.56 109.137 143.036C108.663 147.134 108.545 147.878 108.379 148.114C107.339 148.102 106.171 149.033 105.929 148.268C101.381 133.968 102.396 127.695 99.9042 127.695C99.3516 127.695 98.7854 128.021 98.5633 128.532C95.2483 136.15 96.5124 133.464 92.3638 142.281C89.8097 147.71 89.9838 147.297 89.8412 147.738C89.6589 148.301 89.5821 148.538 87.3433 147.989C86.9841 146.762 88.4881 131.606 89.3614 127.759ZM86.9649 201.291C86.9924 201.379 87.1199 201.73 87.0362 201.768C86.9485 201.805 86.7497 201.762 86.6194 201.644C85.7023 200.813 84.3505 200.816 84.0078 199.782C81.296 191.615 79.9003 187 79.8482 186.045C80.1444 186.143 83.4635 186.707 85.9545 186.814C86.2315 186.825 86.47 186.836 86.5057 186.847C86.5153 186.871 86.5194 186.966 86.5221 187.035C86.9457 199.169 86.2849 199.15 86.9649 201.291ZM111.135 170.42C110.922 169.976 110.596 170.011 110.215 170.332C110.153 170.179 110.051 170.115 109.968 170.091C109.768 170.029 109.554 170.143 109.312 170.346C109.628 169.692 109.646 169.496 109.414 168.854C109.261 168.429 109.117 168.043 109.229 167.623C109.368 167.105 109.147 167.012 108.342 166.33C108.054 166.085 107.815 165.882 107.714 165.774C109.233 164.976 109.083 164.833 109.158 164.989C110.663 168.125 110.153 167.352 111.79 168.149C111.571 168.128 111.257 168.11 111.172 168.539C111.014 169.32 111.313 169.622 111.135 170.423V170.42ZM87.1994 171.545C87.161 171.384 87.1253 171.231 87.1349 171.197C87.3351 170.913 94.4833 165.918 96.0051 162.725C97.6187 159.331 92.601 152.197 90.0798 149.877C90.0921 149.699 90.9216 149.134 91.3945 147.958C92.8341 144.38 99.1638 130.792 99.8534 129.537C100.895 131.202 102.509 148.342 105.594 149.842C105.695 149.891 105.732 149.925 105.732 149.925C105.578 150.485 101.464 151.781 100.62 156.005C99.911 159.547 104.704 164.959 107.898 167.531C108.039 167.645 108.137 167.834 108.19 168.099C108.462 169.464 108.658 169.223 108.012 170.523C107.727 171.098 107.479 171.596 107.692 171.933C107.958 172.35 108.633 172.217 109.084 171.962C109.339 171.82 109.349 171.814 109.468 172.011C109.58 172.199 109.827 172.151 109.872 172.19C109.872 172.19 109.897 172.224 109.886 172.346C108.422 188.707 108.479 185.983 108.861 198.373C108.245 198.205 106.202 196.904 102.841 197.006C102.384 197.018 102.45 197.044 102.373 196.897C104.414 195.716 104.734 191.05 103.566 188.615C102.843 187.113 101.496 186.725 100.771 186.515C100.671 186.486 100.561 186.455 100.481 186.427C100.858 184.919 100.388 184.012 99.9206 183.514C96.6467 180.012 92.3446 186.156 96.5974 188.126C96.7276 188.186 96.7811 188.216 96.7811 188.216C96.74 188.356 95.7337 189.617 96.2025 191.741C96.2779 192.085 96.2697 192.089 96.1299 192.141C95.3854 192.42 95.0345 193.012 95.0564 193.955C95.0866 195.215 95.6555 195.515 96.0723 195.735C96.4822 195.951 96.607 196.02 96.4849 196.838C96.4479 196.855 96.2862 196.851 96.2094 196.849C92.0896 196.751 88.6869 199.062 87.8067 199.327C87.8574 189.24 87.734 187.778 87.6874 187.227C87.6257 186.497 88.5045 177.022 87.1994 171.545ZM108.585 159.366C108.574 159.33 108.564 159.268 108.564 159.268C109.613 158.657 110.362 158.213 110.661 158.067C110.506 158.978 110.341 163.76 110.241 164.707C109.985 164.008 109.387 161.906 108.596 159.403C108.379 159.471 108.301 159.518 108.585 159.366ZM98.5908 196.109C98.5085 196.278 98.5483 196.481 98.6936 196.64C99.4545 197.476 100.409 197.354 101.205 197.347C101.146 197.442 101.015 197.614 100.727 197.932C99.8589 198.892 98.8019 197.998 97.9766 197.61C97.1307 197.207 98.3549 195.55 97.8162 194.912C97.6544 194.722 97.3953 194.683 97.1471 194.704C96.1737 194.767 95.7912 193.336 96.8345 193.367C97.7819 193.396 97.6557 192.905 97.8079 191.585C98.1383 188.769 97.7901 191.408 101.244 188.961C101.597 188.71 101.732 188.521 101.87 188.386C102.928 189.335 103.523 192.654 102.284 195.115C101.297 197.069 99.0007 195.275 98.5908 196.109ZM84.7837 164.112C85.1539 160.77 85.0045 162.486 85.4706 158.49C85.8051 158.614 86.858 159.405 88.1906 160.351C88.3277 160.409 85.949 164.429 85.2499 166.607C85.1374 166.051 84.8166 164.241 84.7837 164.112ZM81.4303 173.85C81.4865 173.988 81.4948 174.242 81.7319 174.368C81.9184 174.466 82.1775 174.415 82.3516 174.337C82.4805 174.762 82.9548 174.871 83.3086 174.574C84.659 173.455 84.2408 172.6 85.9765 171.843C86.6194 172.942 86.943 184.626 86.3603 185.743C85.8846 185.621 86.0697 186.053 77.0035 184.125C76.4071 183.998 76.0561 184.013 75.5735 184.032C72.131 184.171 64.1109 182.705 64.0135 182.584C63.934 182.445 66.7664 171.855 68.6789 168.787C68.8914 168.448 69.0107 168.414 69.4714 168.544C73.8859 169.825 80.1635 169.537 82.2118 169.715C80.4844 171.163 79.5946 174.482 81.4303 173.85ZM116.642 138.676C117.278 136.625 119.968 136.979 121.261 137.15C121.428 137.172 121.572 137.192 121.686 137.203C122.016 137.233 122.35 138.231 122.35 140.386C122.355 144.94 120.957 143.849 120.159 145.321C119.928 145.745 120.222 146.204 121.21 145.783C121.447 146.474 121.235 146.348 121.404 146.579C121.624 146.884 121.516 147.068 121.197 147.445C120.172 148.65 119.487 149.175 118.978 149.138C118.3 149.094 117.71 147.956 116.957 146.821C116.648 146.354 116.944 146.28 117.141 145.496C117.446 144.267 117.928 144.506 117.399 143.376C116.851 142.204 116.931 141.672 116.088 141.835C115.492 141.952 115.377 141.945 115.271 141.605C115.252 141.54 115.2 141.369 115.73 141.176C116.899 140.749 115.988 140.792 116.642 138.679V138.676ZM121.04 150.826C120.765 150.435 120.839 150.53 120.297 149.911C121.527 149.033 121.846 148.506 122.1 148.081C122.137 149.002 121.538 150.038 121.04 150.826ZM117.691 149.792C117.655 149.839 117.537 149.928 117.441 149.999C117.158 150.212 116.733 150.531 116.313 151.13C116.214 151.063 115.998 150.833 115.8 150.369C115.456 149.56 115.326 148.401 115.99 147.287C116.331 147.873 116.316 148.339 117.691 149.792ZM74.5412 146.686C75.5612 142.505 73.9956 144.681 72.9906 142.66C71.606 139.868 72.5081 135.326 73.6062 136.314C74.6879 137.283 76.2316 137.34 76.7279 137.517C77.3407 140.692 77.2955 140.748 78.6678 140.231C79.1326 140.057 79.2944 140.631 78.7131 141.054C78.5403 141.18 78.384 141.254 78.2456 141.321C77.4504 141.701 77.6602 141.917 77.2777 143.205C77.0281 144.042 76.8623 144.595 77.6382 146.251C78.1825 147.408 79.5398 147.117 79.6988 147.296C79.6988 147.296 79.7057 147.323 79.6823 147.397C78.3388 151.587 78.2387 152.668 77.2105 152.811C76.6991 152.819 70.9822 153.948 71.451 152.372C73.2251 146.446 74.3671 147.411 74.5412 146.686ZM113.256 81.5863C112.13 83.4782 114.227 87.6378 115.617 93.7578C115.961 95.2699 115.63 96.1611 115.2 97.2688C114.111 96.1309 114.229 96.1926 113.301 95.2082C110.788 92.5445 110.544 93.6467 110.814 92.3196C111.766 87.6268 111.581 82.0826 112.134 80.2249C112.014 81.1723 112.272 80.979 113.257 81.5877L113.256 81.5863ZM61.103 256.148C60.5697 255.776 60.7177 255.591 60.5121 254.308C60.5162 253.891 60.4504 253.916 61.3497 253.756L61.3566 253.794C61.4772 254.536 61.5746 255.12 62.4191 255.856C64.2178 257.427 64.9252 258.255 65.113 258.579C64.7991 258.487 63.8449 258.058 61.103 256.148ZM139.589 200.987C138.681 199.724 138.436 199.491 138.216 199.169C140.434 198.499 140.508 198.449 140.644 198.589C142.847 200.799 141.858 200.535 142.881 200.976C142.939 201.002 143.003 200.998 143.058 200.969C143.161 200.916 143.157 200.821 143.213 200.714C143.272 200.602 143.361 200.433 143.286 200.196C142.421 197.501 140.885 197.47 141.24 195.844C141.444 194.909 142.444 194.091 142.867 194.069C142.959 194.062 142.913 194.054 143.05 194.38C143.191 194.715 143.238 194.827 142.907 195.107C141.738 196.101 143.173 197.632 143.697 199.283C144.583 202.067 148.687 202.499 149.977 200.008C150.234 199.512 151.018 199.109 151.555 197.86C151.916 197.021 151.679 196.642 151.488 196.338C151.317 196.064 151.181 195.849 151.506 195.204C151.537 195.14 151.605 195.007 151.588 194.996C151.614 194.999 151.681 195.034 151.79 195.1C154.788 196.917 151.513 199.377 151.901 200.105C151.943 200.184 152.035 200.28 152.239 200.289C153.377 200.363 153.898 198.892 154.17 198.667C157.999 200.105 162.098 204.088 166.355 210.504C166.972 211.442 167.261 212.936 166.674 213.819C162.914 219.459 162.651 218.996 161.018 221.091C160.547 221.694 160.908 221.236 159.308 220.098C158.68 219.65 159.61 216.809 160.288 214.734C161.048 212.414 161.425 211.186 161.026 210.825C160.934 210.741 160.764 210.669 160.484 210.793C160.11 210.959 159.972 211.282 159.85 211.564C159.756 211.778 160.218 211.835 156.602 209.619C156.4 209.497 156.381 209.406 156.417 209.262C156.65 208.282 156.526 207.303 156.568 206.341C156.62 205.072 155.393 204.965 155.276 206.049C155.049 208.174 154.715 214.569 154.682 217.455C154.604 224.57 158.058 223.278 147.405 222.992C147.335 222.992 147.293 222.983 147.293 222.983C147.252 222.843 147.98 204.838 147.828 202.946V202.923C147.825 202.88 147.817 202.851 147.811 202.839C145.596 198.703 146.629 221.254 145.819 223.013C140.712 223.278 139.123 222.966 138.994 222.759C139.156 221.809 138.829 221.1 138.276 217.068C137.519 211.531 137.958 209.66 137.242 209.379C136.75 209.187 136.187 209.863 133.971 211.967C133.746 211.874 133.487 210.632 132.835 210.881C132.015 211.197 132.633 211.537 135.509 220.56C135.52 220.592 135.536 220.621 135.536 220.621C135.498 220.697 133.561 222.146 133.494 222.199C132.415 221.284 125.608 214.429 127.21 210.416C127.563 209.535 130.807 204.786 135.397 200.709C136.048 200.133 135.948 200.787 138.645 201.866C139.347 202.15 140.043 201.608 139.589 200.983V200.987ZM144.884 188.925C144.972 187.588 145.896 187.157 147.623 186.825C148.628 186.921 149.215 187.301 149.358 187.48C147.847 187.948 145.568 188.765 144.884 188.925ZM144.939 190.399C144.923 190.318 144.902 190.221 144.881 190.233C144.91 190.211 149.683 188.528 150.025 188.456C150.102 189.58 152.183 195.042 149.142 195.854C147.272 196.352 147.431 197.494 148.218 197.427C148.403 197.411 148.416 197.413 148.48 197.754C148.521 197.967 148.576 198.256 148.76 198.556C149.297 199.434 147.693 200.677 146.118 199.872C145.77 199.694 144.994 199.154 145.316 197.983L145.461 197.462C145.808 196.221 146.502 194.161 145.282 194.161C144.995 194.161 144.577 194.373 144.236 193.969C143.93 193.607 143.96 192.976 144.508 192.927C145.675 192.826 145.341 192.362 144.938 190.398L144.939 190.399ZM157.296 220.902C157.272 221.114 157.147 220.899 156.373 222.181C156.066 222.678 155.737 213.389 156.254 210.955C157.981 212.066 158.166 212.317 159.089 212.669C159.861 212.964 159.022 212.672 157.59 219.425C157.43 220.183 157.039 220.453 157.296 220.902ZM136.931 220.441C136.309 219.203 136.996 220.082 134.606 213.479C134.561 213.356 134.563 213.368 134.69 213.254C135.664 212.382 135.991 211.942 136.285 211.715C136.402 212.188 136.366 213.494 136.732 216.266C137.151 219.435 137.56 220.766 137.56 222.347C137.56 222.381 137.571 222.415 137.592 222.444V222.65C137.082 222.033 136.421 221.767 136.874 220.826C136.937 220.693 136.996 220.569 136.931 220.441ZM157.23 224.851C157.138 223.65 157.025 223.609 157.684 222.438C157.829 222.181 157.992 221.889 158.055 221.861C158.157 221.872 158.794 222.521 158.857 222.595C158.614 222.91 157.348 224.234 157.23 224.851ZM136.155 222.836C136.155 222.836 136.184 222.855 136.24 222.949C137.001 224.217 136.953 223.679 137.493 225.141C137.355 225.7 137.286 225.86 137.256 225.884C137.074 225.889 136.88 225.937 136.584 226.35C136.568 225.876 136.443 225.186 135.695 224.282C135.516 224.07 135.427 223.752 135.312 223.463C135.376 223.412 136.076 222.846 136.157 222.835L136.155 222.836ZM137.201 234.413C137.63 234.299 137.839 234.245 138.054 234.445C139.674 235.929 139.784 239.051 137.326 240.354C137.274 239.155 137.123 235.116 137.201 234.413ZM137.263 252.608C136.967 240.842 136.676 242.671 138.808 241.074C141.856 238.793 140.561 232.622 137.31 233.132C137.246 233.142 137.179 233.151 137.13 233.157C137.129 233.073 137.133 232.972 137.141 232.707C137.288 227.917 137.316 227.305 137.659 227.297C138.14 227.288 138.341 226.856 138.416 226.694C139.042 225.355 138.582 224.636 138.517 224.21C140.401 224.724 145.175 224.514 146.632 224.433C149.667 224.547 154.43 225.02 155.812 224.284C155.981 224.961 156.089 226.886 157.494 233.127C152.908 233.127 153.694 243.187 158.767 240.988C158.82 240.964 158.897 240.932 158.952 240.912C159.186 241.74 159.854 247.464 159.952 249.299C160.128 252.542 160.427 252.304 159.85 252.534C159.142 252.816 157.182 253.087 156.956 252.509C153.179 242.981 150.497 237.307 147.951 229.587C147.888 229.399 147.637 229.203 147.216 229.207C146.315 229.215 146.217 230.106 146.001 231.017C143.855 240.103 141.226 247.738 140.594 252.146C140.439 253.228 140.45 253.128 139.895 253.169C137.113 253.373 137.284 253.37 137.264 252.608H137.263ZM157.084 239.894C156.424 239.663 155.977 239.099 155.827 238.305C155.787 238.162 155.441 236.039 156.381 234.921C156.827 234.389 157.392 234.392 157.567 234.395C157.821 234.399 157.801 234.544 158.738 239.411C158.831 239.885 157.84 240.157 157.084 239.894Z" fill="white"/>
</svg>
